<?xml version="1.0" standalone="no"?>
<!DOCTYPE svg PUBLIC "-//W3C//DTD SVG 20010904//EN"
 "http://www.w3.org/TR/2001/REC-SVG-20010904/DTD/svg10.dtd">
<svg version="1.0" xmlns="http://www.w3.org/2000/svg"
 width="512.000000pt" height="512.000000pt" viewBox="0 0 512.000000 512.000000"
 preserveAspectRatio="xMidYMid meet">
<metadata>
Created by potrace 1.14, written by Peter Selinger 2001-2017
</metadata>
<g transform="translate(0.000000,512.000000) scale(0.100000,-0.100000)"
fill="#000000" stroke="none">
<path d="M1881 5043 c-18 -9 -45 -35 -59 -57 -15 -23 -29 -43 -33 -46 -3 -3
-12 -20 -20 -37 -8 -18 -17 -33 -21 -33 -5 0 -8 -7 -8 -15 0 -8 -4 -15 -10
-15 -5 0 -10 -5 -10 -10 0 -6 -16 -36 -35 -66 -19 -30 -35 -57 -35 -60 0 -3
-14 -25 -30 -50 -17 -24 -27 -44 -23 -44 4 0 3 -4 -3 -8 -13 -9 -114 -180
-114 -193 0 -5 -7 -12 -15 -15 -8 -4 -13 -10 -10 -14 3 -4 -2 -13 -10 -20 -8
-7 -15 -16 -15 -21 0 -4 -40 -75 -90 -158 -49 -83 -90 -155 -90 -161 0 -5 -4
-10 -9 -10 -5 0 -11 -8 -14 -17 -4 -10 -17 -36 -30 -58 -179 -300 -298 -504
-296 -511 0 -4 -3 -10 -8 -13 -10 -7 -20 -24 -134 -221 -23 -41 -48 -78 -53
-82 -6 -4 -7 -8 -2 -8 5 0 2 -8 -6 -17 -8 -10 -32 -47 -53 -83 -62 -107 -78
-134 -92 -160 -8 -14 -23 -38 -33 -55 -11 -16 -23 -37 -27 -45 -7 -14 -103
-178 -144 -245 -11 -16 -22 -37 -26 -45 -4 -8 -27 -49 -51 -90 -24 -41 -47
-82 -52 -90 -167 -286 -170 -292 -170 -349 0 -73 15 -96 94 -146 39 -25 80
-52 91 -60 10 -8 23 -15 27 -15 5 0 27 -12 51 -27 53 -35 68 -44 104 -64 62
-35 104 -59 140 -82 21 -13 58 -35 83 -49 25 -14 65 -37 90 -52 122 -72 188
-88 242 -60 41 21 78 55 72 66 -3 4 0 8 5 8 6 0 11 7 11 15 0 8 4 15 9 15 5 0
12 9 16 20 3 11 23 45 43 77 20 31 36 60 35 65 -2 4 1 8 6 8 5 0 11 6 13 13 2
6 32 61 68 120 80 135 104 176 154 263 22 38 45 72 50 76 7 5 7 8 1 8 -6 0 -5
4 1 8 6 4 23 30 38 57 15 28 32 59 39 69 7 11 27 44 45 72 17 29 32 55 32 58
0 5 38 65 57 91 5 6 9 17 11 24 1 7 11 25 21 39 31 44 221 373 221 383 0 5 4
9 8 9 4 0 18 19 30 43 13 23 28 51 35 62 7 11 34 58 62 105 27 47 58 99 68
115 10 17 23 42 30 58 6 15 15 27 19 27 4 0 8 7 8 15 0 8 3 15 8 15 4 0 13 15
21 33 8 17 17 34 20 37 4 3 12 16 19 30 7 14 21 39 32 55 11 17 23 37 27 45 3
8 17 32 30 52 17 29 28 36 45 33 26 -5 120 -46 128 -56 3 -4 21 -14 40 -22 19
-9 64 -32 100 -53 36 -20 94 -52 130 -72 36 -19 76 -42 90 -51 14 -9 52 -30
85 -46 33 -17 62 -32 65 -35 17 -17 298 -160 315 -160 28 0 71 60 295 415 63
99 118 182 122 183 4 2 8 9 8 16 0 8 9 24 20 38 31 40 80 141 80 165 0 16 -15
34 -47 58 -27 19 -53 35 -60 35 -6 0 -13 3 -15 8 -1 4 -19 15 -38 25 -19 9
-48 25 -65 35 -40 25 -121 70 -170 96 -22 12 -41 24 -43 29 -2 4 -7 7 -11 7
-4 0 -110 59 -236 130 -125 72 -231 130 -236 130 -5 0 -9 5 -9 12 0 6 -3 8 -7
5 -3 -4 -13 -1 -22 7 -9 7 -41 27 -71 43 -30 17 -87 49 -127 72 -40 22 -77 41
-83 41 -5 0 -10 4 -10 9 0 5 -15 14 -32 22 -18 7 -35 16 -38 20 -3 3 -36 23
-75 44 -38 20 -92 50 -120 66 -27 16 -59 34 -70 39 -11 6 -40 22 -65 36 -203
117 -256 133 -329 97z"/>
<path d="M4138 3763 c-10 -3 -18 -9 -18 -14 0 -5 -6 -9 -13 -9 -13 0 -57 -40
-57 -52 0 -3 -20 -36 -45 -74 -25 -37 -45 -71 -45 -76 0 -4 -13 -27 -30 -51
-16 -25 -30 -50 -30 -56 0 -6 -4 -11 -9 -11 -5 0 -14 -12 -21 -27 -19 -47 -34
-73 -42 -73 -5 0 -8 -4 -8 -10 0 -5 -34 -66 -75 -135 -41 -70 -75 -130 -75
-136 0 -5 -4 -9 -9 -9 -5 0 -14 -14 -21 -31 -7 -17 -18 -36 -24 -43 -6 -6 -24
-36 -40 -66 -16 -30 -32 -57 -36 -60 -3 -3 -14 -21 -24 -40 -20 -41 -31 -59
-69 -117 -15 -24 -27 -45 -27 -48 0 -3 -12 -24 -27 -48 -16 -23 -30 -47 -33
-52 -5 -10 -199 -340 -220 -375 -51 -83 -130 -223 -130 -230 0 -6 -4 -10 -9
-10 -5 0 -11 -8 -15 -17 -3 -10 -10 -25 -16 -33 -12 -18 -92 -155 -128 -220
-14 -25 -28 -47 -31 -50 -3 -3 -15 -23 -26 -44 -30 -59 -53 -85 -73 -81 -24 5
-86 29 -92 35 -3 3 -25 15 -50 28 -25 13 -63 33 -85 46 -22 12 -69 38 -105 57
-36 20 -85 47 -110 61 -106 60 -287 158 -460 250 -47 24 -62 23 -92 -9 -31
-34 -225 -328 -266 -403 -7 -13 -16 -27 -20 -30 -4 -3 -16 -21 -26 -40 -11
-19 -26 -41 -33 -48 -7 -7 -13 -20 -13 -28 0 -8 -4 -14 -10 -14 -5 0 -10 -7
-10 -15 0 -8 -4 -15 -8 -15 -5 0 -16 -15 -25 -32 -9 -18 -30 -55 -46 -83 -38
-63 -38 -88 -1 -127 17 -17 30 -28 30 -24 0 8 82 -44 92 -59 4 -5 8 -6 8 -1 0
4 11 1 24 -8 25 -16 35 -22 151 -87 33 -18 62 -37 63 -41 2 -5 8 -6 13 -2 5 3
9 0 9 -7 0 -7 3 -9 6 -6 4 4 19 -2 34 -13 16 -11 33 -20 39 -20 6 0 11 -4 11
-10 0 -5 4 -10 9 -10 12 0 195 -103 199 -112 2 -4 12 -8 23 -8 10 0 19 -4 19
-10 0 -5 7 -10 15 -10 8 0 15 -4 15 -10 0 -5 5 -10 11 -10 6 0 75 -37 152 -82
78 -45 158 -90 177 -100 19 -10 42 -22 50 -28 8 -5 47 -27 85 -48 39 -22 88
-50 110 -62 22 -13 65 -36 95 -53 30 -16 60 -33 65 -37 6 -4 37 -22 70 -40
126 -67 140 -75 145 -81 3 -3 31 -18 64 -32 113 -52 185 -29 251 79 22 36 55
88 73 115 17 28 32 53 32 55 0 2 11 23 26 45 14 22 33 55 43 72 10 18 52 89
95 159 42 71 76 132 76 138 0 5 4 10 9 10 5 0 11 8 14 17 8 24 40 76 52 85 7
5 7 8 0 8 -6 0 -6 3 0 8 15 9 70 105 67 115 -1 4 2 7 6 7 4 0 19 22 33 50 13
27 27 50 32 50 4 0 7 6 7 14 0 8 3 16 8 18 6 3 17 20 73 123 12 22 24 42 28
45 3 3 13 19 21 35 8 17 26 46 39 65 12 19 27 44 32 55 5 11 15 29 21 39 51
79 77 126 71 126 -4 0 -3 4 3 8 11 8 74 108 74 119 0 3 6 14 14 22 7 9 24 36
37 61 13 25 28 49 32 55 12 15 154 255 172 290 9 17 24 44 35 60 11 17 23 37
27 45 12 25 94 163 114 192 11 14 19 33 19 42 0 9 4 16 8 16 5 0 15 12 23 28
7 15 28 50 46 79 18 29 33 56 33 62 0 5 6 16 13 23 7 7 39 60 72 118 32 58 62
107 65 110 3 3 13 21 24 40 10 19 33 63 52 97 39 69 46 145 18 191 -15 26
-104 92 -124 92 -5 0 -10 5 -10 10 0 6 -4 10 -9 10 -5 0 -46 23 -91 50 -45 28
-86 50 -91 50 -5 0 -9 3 -9 8 0 4 -15 14 -32 22 -18 7 -37 18 -43 22 -14 12
-175 108 -181 108 -2 0 -23 12 -45 26 -118 74 -201 102 -261 87z"/>
</g>
</svg>
