<?xml version="1.0" standalone="no"?>
<!DOCTYPE svg PUBLIC "-//W3C//DTD SVG 20010904//EN"
 "http://www.w3.org/TR/2001/REC-SVG-20010904/DTD/svg10.dtd">
<svg version="1.0" xmlns="http://www.w3.org/2000/svg"
 width="512.000000pt" height="512.000000pt" viewBox="0 0 512.000000 512.000000"
 preserveAspectRatio="xMidYMid meet">
<metadata>
Created by potrace 1.14, written by Peter Selinger 2001-2017
</metadata>
<g transform="translate(0.000000,512.000000) scale(0.100000,-0.100000)"
fill="#000000" stroke="none">
<path d="M1882 5043 c-18 -9 -46 -34 -61 -57 -50 -73 -407 -677 -1051 -1776
-53 -91 -202 -345 -331 -565 -385 -655 -389 -662 -389 -724 0 -57 19 -99 54
-121 66 -43 518 -312 611 -365 168 -95 200 -102 271 -60 39 23 59 51 173 243
113 192 684 1163 1061 1805 125 213 135 227 162 227 35 0 80 -23 430 -216 371
-206 501 -274 521 -274 27 0 80 73 258 353 250 395 262 414 263 455 1 34 -4
40 -54 73 -30 20 -145 87 -255 149 -110 62 -261 148 -335 190 -1277 724 -1195
680 -1251 680 -24 0 -59 -8 -77 -17z"/>
<path d="M4135 3760 c-11 -4 -34 -21 -52 -37 -29 -26 -368 -593 -1083 -1813
-134 -228 -250 -423 -257 -432 -27 -31 -36 -27 -621 296 -227 125 -346 186
-365 186 -25 0 -65 -55 -229 -310 -238 -370 -288 -454 -295 -493 -5 -30 -1
-37 28 -60 19 -14 234 -138 479 -277 1110 -629 1202 -681 1301 -731 89 -45
161 -37 216 23 26 28 223 358 768 1283 1102 1872 1025 1736 1025 1803 0 58
-18 100 -54 122 -52 33 -365 221 -506 303 -244 142 -296 162 -355 137z"/>
</g>
</svg>
